<?xml version="1.0" encoding="UTF-8"?>
<svg xmlns="http://www.w3.org/2000/svg" viewBox="0 0 100 100" width="500" height="500">
    <!-- Hexagon background -->
    <path d="M30 13 L70 13
             Q75 13,77 17
             L92 45
             Q95 50,92 55
             L77 83
             Q75 87,70 87
             L30 87
             Q25 87,23 83
             L8 55
             Q5 50,8 45
             L23 17
             Q25 13,30 13"
          fill="#FFD700"
          stroke="#FFD700"
          stroke-width="2"/>

    <!-- Bee body and details -->
    <path d="M50 25 
             Q65 25,75 35
             Q85 45,75 60
             Q65 75,50 75
             Q35 75,25 60
             Q15 45,25 35
             Q35 25,50 25
             M50 25 L50 75
             M30 40
             Q25 45,30 50
             Q35 55,30 60
             M70 40
             Q75 45,70 50
             Q65 55,70 60"
          stroke="#FF8C00"
          fill="none"
          stroke-width="4"
          stroke-linecap="round"/>
</svg>